<mxfile host="Electron" agent="Mozilla/5.0 (Windows NT 10.0; Win64; x64) AppleWebKit/537.36 (KHTML, like Gecko) draw.io/26.0.9 Chrome/128.0.6613.186 Electron/32.2.5 Safari/537.36" version="26.0.9">
  <diagram name="Page-1" id="leh6XDWtyNmdSYLjMk1i">
    <mxGraphModel dx="1134" dy="1841" grid="1" gridSize="10" guides="1" tooltips="1" connect="1" arrows="1" fold="1" page="1" pageScale="1" pageWidth="850" pageHeight="1100" math="0" shadow="0">
      <root>
        <mxCell id="0" />
        <mxCell id="1" parent="0" />
        <mxCell id="LAfN65XnbnC7bOpadc8_-10" value="Bounded context Donaciones" style="rounded=0;whiteSpace=wrap;html=1;verticalAlign=top;" parent="1" vertex="1">
          <mxGeometry x="80" y="495" width="790" height="485" as="geometry" />
        </mxCell>
        <mxCell id="H5ilXZ9yzi8Av0ePW7dj-27" value="Infraestructure" style="rounded=0;whiteSpace=wrap;html=1;verticalAlign=top;" parent="1" vertex="1">
          <mxGeometry x="100" y="522" width="750" height="448" as="geometry" />
        </mxCell>
        <mxCell id="H5ilXZ9yzi8Av0ePW7dj-22" value="Application" style="rounded=0;whiteSpace=wrap;html=1;verticalAlign=top;" parent="1" vertex="1">
          <mxGeometry x="273.5" y="553" width="376.5" height="407" as="geometry" />
        </mxCell>
        <mxCell id="H5ilXZ9yzi8Av0ePW7dj-21" value="Domain" style="rounded=0;whiteSpace=wrap;html=1;verticalAlign=top;" parent="1" vertex="1">
          <mxGeometry x="307.5" y="577" width="320" height="180" as="geometry" />
        </mxCell>
        <mxCell id="LAfN65XnbnC7bOpadc8_-9" value="Mascotas bounded context" style="rounded=0;whiteSpace=wrap;html=1;verticalAlign=top;" parent="1" vertex="1">
          <mxGeometry x="80" y="30" width="790" height="410" as="geometry" />
        </mxCell>
        <mxCell id="OySDXA35Bh_3fbk7G5Cp-2" value="Infrastructure" style="rounded=0;whiteSpace=wrap;html=1;verticalAlign=top;" parent="1" vertex="1">
          <mxGeometry x="110" y="70" width="730" height="360" as="geometry" />
        </mxCell>
        <mxCell id="LAfN65XnbnC7bOpadc8_-1" value="Application" style="whiteSpace=wrap;html=1;aspect=fixed;verticalAlign=top;" parent="1" vertex="1">
          <mxGeometry x="320" y="100" width="320" height="320" as="geometry" />
        </mxCell>
        <mxCell id="OySDXA35Bh_3fbk7G5Cp-1" value="Domain" style="rounded=0;whiteSpace=wrap;html=1;verticalAlign=top;" parent="1" vertex="1">
          <mxGeometry x="330" y="130" width="290" height="120" as="geometry" />
        </mxCell>
        <mxCell id="LAfN65XnbnC7bOpadc8_-2" value="&lt;h1 style=&quot;margin-top: 0px;&quot;&gt;REQUIREMENTS&lt;/h1&gt;&lt;div&gt;-Listado de mascotas para la adopcion&lt;/div&gt;&lt;div&gt;- Donar dinero&amp;nbsp;&lt;/div&gt;&lt;div&gt;- Listado de productos o medicamentos necesitados&lt;/div&gt;&lt;div&gt;- Apadrinar&lt;/div&gt;&lt;div&gt;- Subir mascota nueva&lt;/div&gt;" style="text;html=1;whiteSpace=wrap;overflow=hidden;rounded=0;" parent="1" vertex="1">
          <mxGeometry x="20" y="-110" width="390" height="120" as="geometry" />
        </mxCell>
        <mxCell id="LAfN65XnbnC7bOpadc8_-3" value="Mascota&lt;div&gt;Aggregate root&lt;/div&gt;" style="whiteSpace=wrap;html=1;aspect=fixed;strokeWidth=3;" parent="1" vertex="1">
          <mxGeometry x="340" y="150" width="90" height="90" as="geometry" />
        </mxCell>
        <mxCell id="bbmx29JU76m_AN02uEQV-15" style="edgeStyle=orthogonalEdgeStyle;rounded=0;orthogonalLoop=1;jettySize=auto;html=1;exitX=1;exitY=0.5;exitDx=0;exitDy=0;entryX=0;entryY=0.5;entryDx=0;entryDy=0;fillColor=#e1d5e7;strokeColor=#9673a6;" parent="1" source="OySDXA35Bh_3fbk7G5Cp-3" target="bbmx29JU76m_AN02uEQV-13" edge="1">
          <mxGeometry relative="1" as="geometry">
            <Array as="points">
              <mxPoint x="650" y="275" />
              <mxPoint x="650" y="365" />
            </Array>
          </mxGeometry>
        </mxCell>
        <mxCell id="bbmx29JU76m_AN02uEQV-22" style="edgeStyle=orthogonalEdgeStyle;rounded=0;orthogonalLoop=1;jettySize=auto;html=1;entryX=0.005;entryY=0.168;entryDx=0;entryDy=0;fillColor=#e1d5e7;strokeColor=#9673a6;entryPerimeter=0;" parent="1" source="OySDXA35Bh_3fbk7G5Cp-3" target="bbmx29JU76m_AN02uEQV-11" edge="1">
          <mxGeometry relative="1" as="geometry">
            <Array as="points" />
          </mxGeometry>
        </mxCell>
        <mxCell id="OySDXA35Bh_3fbk7G5Cp-3" value="AdoptarMascota" style="rounded=0;whiteSpace=wrap;html=1;fillColor=#e1d5e7;strokeColor=#9673a6;" parent="1" vertex="1">
          <mxGeometry x="399" y="260" width="150" height="30" as="geometry" />
        </mxCell>
        <mxCell id="bbmx29JU76m_AN02uEQV-16" style="edgeStyle=orthogonalEdgeStyle;rounded=0;orthogonalLoop=1;jettySize=auto;html=1;exitX=1;exitY=0.5;exitDx=0;exitDy=0;fillColor=#fff2cc;strokeColor=#d6b656;" parent="1" source="OySDXA35Bh_3fbk7G5Cp-4" target="bbmx29JU76m_AN02uEQV-12" edge="1">
          <mxGeometry relative="1" as="geometry">
            <Array as="points">
              <mxPoint x="660" y="315" />
              <mxPoint x="660" y="315" />
            </Array>
          </mxGeometry>
        </mxCell>
        <mxCell id="bbmx29JU76m_AN02uEQV-21" style="edgeStyle=orthogonalEdgeStyle;rounded=0;orthogonalLoop=1;jettySize=auto;html=1;exitX=1;exitY=0.5;exitDx=0;exitDy=0;entryX=0;entryY=0.75;entryDx=0;entryDy=0;fillColor=#fff2cc;strokeColor=#d6b656;" parent="1" source="OySDXA35Bh_3fbk7G5Cp-4" target="bbmx29JU76m_AN02uEQV-11" edge="1">
          <mxGeometry relative="1" as="geometry" />
        </mxCell>
        <mxCell id="OySDXA35Bh_3fbk7G5Cp-4" value="ApadrinarMascota" style="rounded=0;whiteSpace=wrap;html=1;fillColor=#fff2cc;strokeColor=#d6b656;" parent="1" vertex="1">
          <mxGeometry x="399" y="300" width="150" height="30" as="geometry" />
        </mxCell>
        <mxCell id="bbmx29JU76m_AN02uEQV-17" style="edgeStyle=orthogonalEdgeStyle;rounded=0;orthogonalLoop=1;jettySize=auto;html=1;exitX=1;exitY=0.5;exitDx=0;exitDy=0;entryX=0;entryY=0.5;entryDx=0;entryDy=0;fillColor=#dae8fc;strokeColor=#6c8ebf;" parent="1" source="OySDXA35Bh_3fbk7G5Cp-5" target="bbmx29JU76m_AN02uEQV-11" edge="1">
          <mxGeometry relative="1" as="geometry">
            <Array as="points">
              <mxPoint x="620" y="355" />
              <mxPoint x="620" y="285" />
            </Array>
          </mxGeometry>
        </mxCell>
        <mxCell id="OySDXA35Bh_3fbk7G5Cp-5" value="Crea&lt;span style=&quot;background-color: transparent; color: light-dark(rgb(0, 0, 0), rgb(255, 255, 255));&quot;&gt;Mascota&lt;/span&gt;" style="rounded=0;whiteSpace=wrap;html=1;fillColor=#dae8fc;strokeColor=#6c8ebf;" parent="1" vertex="1">
          <mxGeometry x="399" y="340" width="150" height="30" as="geometry" />
        </mxCell>
        <mxCell id="bbmx29JU76m_AN02uEQV-19" style="edgeStyle=orthogonalEdgeStyle;rounded=0;orthogonalLoop=1;jettySize=auto;html=1;exitX=1;exitY=0.5;exitDx=0;exitDy=0;entryX=0;entryY=0.5;entryDx=0;entryDy=0;fillColor=#dae8fc;strokeColor=#6c8ebf;" parent="1" source="OySDXA35Bh_3fbk7G5Cp-6" target="bbmx29JU76m_AN02uEQV-11" edge="1">
          <mxGeometry relative="1" as="geometry">
            <Array as="points">
              <mxPoint x="620" y="395" />
              <mxPoint x="620" y="285" />
            </Array>
          </mxGeometry>
        </mxCell>
        <mxCell id="OySDXA35Bh_3fbk7G5Cp-6" value="&lt;span style=&quot;background-color: transparent; color: light-dark(rgb(0, 0, 0), rgb(255, 255, 255));&quot;&gt;VerMascotas&lt;/span&gt;" style="rounded=0;whiteSpace=wrap;html=1;fillColor=#dae8fc;strokeColor=#6c8ebf;" parent="1" vertex="1">
          <mxGeometry x="399" y="380" width="150" height="30" as="geometry" />
        </mxCell>
        <mxCell id="bbmx29JU76m_AN02uEQV-7" style="edgeStyle=orthogonalEdgeStyle;rounded=0;orthogonalLoop=1;jettySize=auto;html=1;entryX=0;entryY=0.5;entryDx=0;entryDy=0;fillColor=#dae8fc;strokeColor=#6c8ebf;" parent="1" source="bbmx29JU76m_AN02uEQV-1" target="OySDXA35Bh_3fbk7G5Cp-5" edge="1">
          <mxGeometry relative="1" as="geometry">
            <Array as="points">
              <mxPoint x="300" y="195" />
              <mxPoint x="300" y="355" />
            </Array>
          </mxGeometry>
        </mxCell>
        <mxCell id="bbmx29JU76m_AN02uEQV-8" style="edgeStyle=orthogonalEdgeStyle;rounded=0;orthogonalLoop=1;jettySize=auto;html=1;entryX=0;entryY=0.5;entryDx=0;entryDy=0;fillColor=#dae8fc;strokeColor=#6c8ebf;" parent="1" source="bbmx29JU76m_AN02uEQV-1" target="OySDXA35Bh_3fbk7G5Cp-6" edge="1">
          <mxGeometry relative="1" as="geometry">
            <Array as="points">
              <mxPoint x="300" y="195" />
              <mxPoint x="300" y="395" />
            </Array>
          </mxGeometry>
        </mxCell>
        <mxCell id="bbmx29JU76m_AN02uEQV-1" value="MascotaController" style="rounded=0;whiteSpace=wrap;html=1;fillColor=#dae8fc;strokeColor=#6c8ebf;" parent="1" vertex="1">
          <mxGeometry x="140" y="180" width="120" height="30" as="geometry" />
        </mxCell>
        <mxCell id="bbmx29JU76m_AN02uEQV-3" value="PadrinoController" style="rounded=0;whiteSpace=wrap;html=1;fillColor=#fff2cc;strokeColor=#d6b656;" parent="1" vertex="1">
          <mxGeometry x="140" y="220" width="120" height="30" as="geometry" />
        </mxCell>
        <mxCell id="bbmx29JU76m_AN02uEQV-4" value="AdoptanteController" style="rounded=0;whiteSpace=wrap;html=1;fillColor=#e1d5e7;strokeColor=#9673a6;" parent="1" vertex="1">
          <mxGeometry x="140" y="260" width="120" height="30" as="geometry" />
        </mxCell>
        <mxCell id="bbmx29JU76m_AN02uEQV-9" style="edgeStyle=orthogonalEdgeStyle;rounded=0;orthogonalLoop=1;jettySize=auto;html=1;entryX=0;entryY=0.5;entryDx=0;entryDy=0;exitX=1;exitY=0.5;exitDx=0;exitDy=0;fillColor=#fff2cc;strokeColor=#d6b656;" parent="1" source="bbmx29JU76m_AN02uEQV-3" target="OySDXA35Bh_3fbk7G5Cp-4" edge="1">
          <mxGeometry relative="1" as="geometry">
            <mxPoint x="260" y="315" as="sourcePoint" />
            <Array as="points">
              <mxPoint x="290" y="235" />
              <mxPoint x="290" y="315" />
            </Array>
          </mxGeometry>
        </mxCell>
        <mxCell id="bbmx29JU76m_AN02uEQV-10" style="edgeStyle=orthogonalEdgeStyle;rounded=0;orthogonalLoop=1;jettySize=auto;html=1;exitX=1;exitY=0.5;exitDx=0;exitDy=0;entryX=0;entryY=0.5;entryDx=0;entryDy=0;fillColor=#e1d5e7;strokeColor=#9673a6;" parent="1" source="bbmx29JU76m_AN02uEQV-4" target="OySDXA35Bh_3fbk7G5Cp-3" edge="1">
          <mxGeometry relative="1" as="geometry">
            <mxPoint x="260" y="355" as="sourcePoint" />
            <Array as="points">
              <mxPoint x="290" y="275" />
              <mxPoint x="290" y="275" />
            </Array>
          </mxGeometry>
        </mxCell>
        <mxCell id="bbmx29JU76m_AN02uEQV-11" value="MascotaRepository" style="rounded=0;whiteSpace=wrap;html=1;" parent="1" vertex="1">
          <mxGeometry x="680" y="270" width="120" height="30" as="geometry" />
        </mxCell>
        <mxCell id="bbmx29JU76m_AN02uEQV-12" value="PadrinoRepository" style="rounded=0;whiteSpace=wrap;html=1;" parent="1" vertex="1">
          <mxGeometry x="680" y="310" width="120" height="30" as="geometry" />
        </mxCell>
        <mxCell id="bbmx29JU76m_AN02uEQV-13" value="AdoptanteRepository" style="rounded=0;whiteSpace=wrap;html=1;" parent="1" vertex="1">
          <mxGeometry x="680" y="350" width="120" height="30" as="geometry" />
        </mxCell>
        <mxCell id="bbmx29JU76m_AN02uEQV-25" style="edgeStyle=orthogonalEdgeStyle;rounded=0;orthogonalLoop=1;jettySize=auto;html=1;exitX=1;exitY=0.5;exitDx=0;exitDy=0;" parent="1" source="bbmx29JU76m_AN02uEQV-23" target="bbmx29JU76m_AN02uEQV-24" edge="1">
          <mxGeometry relative="1" as="geometry" />
        </mxCell>
        <mxCell id="bbmx29JU76m_AN02uEQV-23" value="BancoService" style="rounded=0;whiteSpace=wrap;html=1;" parent="1" vertex="1">
          <mxGeometry x="710" y="714.5" width="120" height="41" as="geometry" />
        </mxCell>
        <mxCell id="bbmx29JU76m_AN02uEQV-24" value="BancoApi" style="rounded=0;whiteSpace=wrap;html=1;fillColor=#f5f5f5;fontColor=#333333;strokeColor=#666666;" parent="1" vertex="1">
          <mxGeometry x="990" y="759.5" width="120" height="60" as="geometry" />
        </mxCell>
        <mxCell id="bbmx29JU76m_AN02uEQV-26" value="Donacion" style="rounded=0;whiteSpace=wrap;html=1;strokeWidth=1;" parent="1" vertex="1">
          <mxGeometry x="334.5" y="682" width="120" height="60" as="geometry" />
        </mxCell>
        <mxCell id="H5ilXZ9yzi8Av0ePW7dj-1" value="Donacion" style="swimlane;fontStyle=0;childLayout=stackLayout;horizontal=1;startSize=30;horizontalStack=0;resizeParent=1;resizeParentMax=0;resizeLast=0;collapsible=1;marginBottom=0;whiteSpace=wrap;html=1;" parent="1" vertex="1">
          <mxGeometry x="300" y="1300" width="140" height="120" as="geometry" />
        </mxCell>
        <mxCell id="H5ilXZ9yzi8Av0ePW7dj-2" value="Key" style="text;strokeColor=none;fillColor=none;align=left;verticalAlign=middle;spacingLeft=4;spacingRight=4;overflow=hidden;points=[[0,0.5],[1,0.5]];portConstraint=eastwest;rotatable=0;whiteSpace=wrap;html=1;" parent="H5ilXZ9yzi8Av0ePW7dj-1" vertex="1">
          <mxGeometry y="30" width="140" height="30" as="geometry" />
        </mxCell>
        <mxCell id="H5ilXZ9yzi8Av0ePW7dj-3" value="Usuario" style="text;strokeColor=none;fillColor=none;align=left;verticalAlign=middle;spacingLeft=4;spacingRight=4;overflow=hidden;points=[[0,0.5],[1,0.5]];portConstraint=eastwest;rotatable=0;whiteSpace=wrap;html=1;" parent="H5ilXZ9yzi8Av0ePW7dj-1" vertex="1">
          <mxGeometry y="60" width="140" height="30" as="geometry" />
        </mxCell>
        <mxCell id="H5ilXZ9yzi8Av0ePW7dj-4" value="Estado" style="text;strokeColor=none;fillColor=none;align=left;verticalAlign=middle;spacingLeft=4;spacingRight=4;overflow=hidden;points=[[0,0.5],[1,0.5]];portConstraint=eastwest;rotatable=0;whiteSpace=wrap;html=1;" parent="H5ilXZ9yzi8Av0ePW7dj-1" vertex="1">
          <mxGeometry y="90" width="140" height="30" as="geometry" />
        </mxCell>
        <mxCell id="H5ilXZ9yzi8Av0ePW7dj-61" style="edgeStyle=orthogonalEdgeStyle;rounded=0;orthogonalLoop=1;jettySize=auto;html=1;" parent="1" source="H5ilXZ9yzi8Av0ePW7dj-5" target="H5ilXZ9yzi8Av0ePW7dj-1" edge="1">
          <mxGeometry relative="1" as="geometry">
            <Array as="points">
              <mxPoint x="300" y="1230" />
              <mxPoint x="370" y="1230" />
            </Array>
          </mxGeometry>
        </mxCell>
        <mxCell id="H5ilXZ9yzi8Av0ePW7dj-5" value="NecesidadMonetaria" style="swimlane;fontStyle=0;childLayout=stackLayout;horizontal=1;startSize=30;horizontalStack=0;resizeParent=1;resizeParentMax=0;resizeLast=0;collapsible=1;marginBottom=0;whiteSpace=wrap;html=1;" parent="1" vertex="1">
          <mxGeometry x="230" y="1020" width="140" height="180" as="geometry" />
        </mxCell>
        <mxCell id="H5ilXZ9yzi8Av0ePW7dj-6" value="Key" style="text;strokeColor=none;fillColor=none;align=left;verticalAlign=middle;spacingLeft=4;spacingRight=4;overflow=hidden;points=[[0,0.5],[1,0.5]];portConstraint=eastwest;rotatable=0;whiteSpace=wrap;html=1;" parent="H5ilXZ9yzi8Av0ePW7dj-5" vertex="1">
          <mxGeometry y="30" width="140" height="30" as="geometry" />
        </mxCell>
        <mxCell id="H5ilXZ9yzi8Av0ePW7dj-8" value="Monto" style="text;strokeColor=none;fillColor=none;align=left;verticalAlign=middle;spacingLeft=4;spacingRight=4;overflow=hidden;points=[[0,0.5],[1,0.5]];portConstraint=eastwest;rotatable=0;whiteSpace=wrap;html=1;" parent="H5ilXZ9yzi8Av0ePW7dj-5" vertex="1">
          <mxGeometry y="60" width="140" height="30" as="geometry" />
        </mxCell>
        <mxCell id="H5ilXZ9yzi8Av0ePW7dj-37" value="kDonacion" style="text;strokeColor=none;fillColor=none;align=left;verticalAlign=middle;spacingLeft=4;spacingRight=4;overflow=hidden;points=[[0,0.5],[1,0.5]];portConstraint=eastwest;rotatable=0;whiteSpace=wrap;html=1;" parent="H5ilXZ9yzi8Av0ePW7dj-5" vertex="1">
          <mxGeometry y="90" width="140" height="30" as="geometry" />
        </mxCell>
        <mxCell id="H5ilXZ9yzi8Av0ePW7dj-64" value="Razon" style="text;strokeColor=none;fillColor=none;align=left;verticalAlign=middle;spacingLeft=4;spacingRight=4;overflow=hidden;points=[[0,0.5],[1,0.5]];portConstraint=eastwest;rotatable=0;whiteSpace=wrap;html=1;" parent="H5ilXZ9yzi8Av0ePW7dj-5" vertex="1">
          <mxGeometry y="120" width="140" height="30" as="geometry" />
        </mxCell>
        <mxCell id="H5ilXZ9yzi8Av0ePW7dj-66" value="FuenteNecesidad (fundacion o usuario)" style="text;strokeColor=none;fillColor=none;align=left;verticalAlign=middle;spacingLeft=4;spacingRight=4;overflow=hidden;points=[[0,0.5],[1,0.5]];portConstraint=eastwest;rotatable=0;whiteSpace=wrap;html=1;" parent="H5ilXZ9yzi8Av0ePW7dj-5" vertex="1">
          <mxGeometry y="150" width="140" height="30" as="geometry" />
        </mxCell>
        <mxCell id="H5ilXZ9yzi8Av0ePW7dj-62" style="edgeStyle=orthogonalEdgeStyle;rounded=0;orthogonalLoop=1;jettySize=auto;html=1;entryX=0.5;entryY=0;entryDx=0;entryDy=0;" parent="1" source="H5ilXZ9yzi8Av0ePW7dj-9" target="H5ilXZ9yzi8Av0ePW7dj-1" edge="1">
          <mxGeometry relative="1" as="geometry">
            <Array as="points">
              <mxPoint x="469" y="1230" />
              <mxPoint x="370" y="1230" />
            </Array>
          </mxGeometry>
        </mxCell>
        <mxCell id="H5ilXZ9yzi8Av0ePW7dj-9" value="NecesidadMaterial" style="swimlane;fontStyle=0;childLayout=stackLayout;horizontal=1;startSize=30;horizontalStack=0;resizeParent=1;resizeParentMax=0;resizeLast=0;collapsible=1;marginBottom=0;whiteSpace=wrap;html=1;" parent="1" vertex="1">
          <mxGeometry x="397.5" y="1020" width="140" height="180" as="geometry" />
        </mxCell>
        <mxCell id="H5ilXZ9yzi8Av0ePW7dj-10" value="Key" style="text;strokeColor=none;fillColor=none;align=left;verticalAlign=middle;spacingLeft=4;spacingRight=4;overflow=hidden;points=[[0,0.5],[1,0.5]];portConstraint=eastwest;rotatable=0;whiteSpace=wrap;html=1;" parent="H5ilXZ9yzi8Av0ePW7dj-9" vertex="1">
          <mxGeometry y="30" width="140" height="30" as="geometry" />
        </mxCell>
        <mxCell id="H5ilXZ9yzi8Av0ePW7dj-12" value="Objeto" style="text;strokeColor=none;fillColor=none;align=left;verticalAlign=middle;spacingLeft=4;spacingRight=4;overflow=hidden;points=[[0,0.5],[1,0.5]];portConstraint=eastwest;rotatable=0;whiteSpace=wrap;html=1;" parent="H5ilXZ9yzi8Av0ePW7dj-9" vertex="1">
          <mxGeometry y="60" width="140" height="30" as="geometry" />
        </mxCell>
        <mxCell id="H5ilXZ9yzi8Av0ePW7dj-13" value="Cantidad" style="text;strokeColor=none;fillColor=none;align=left;verticalAlign=middle;spacingLeft=4;spacingRight=4;overflow=hidden;points=[[0,0.5],[1,0.5]];portConstraint=eastwest;rotatable=0;whiteSpace=wrap;html=1;" parent="H5ilXZ9yzi8Av0ePW7dj-9" vertex="1">
          <mxGeometry y="90" width="140" height="30" as="geometry" />
        </mxCell>
        <mxCell id="H5ilXZ9yzi8Av0ePW7dj-38" value="kDonacion" style="text;strokeColor=none;fillColor=none;align=left;verticalAlign=middle;spacingLeft=4;spacingRight=4;overflow=hidden;points=[[0,0.5],[1,0.5]];portConstraint=eastwest;rotatable=0;whiteSpace=wrap;html=1;" parent="H5ilXZ9yzi8Av0ePW7dj-9" vertex="1">
          <mxGeometry y="120" width="140" height="30" as="geometry" />
        </mxCell>
        <mxCell id="H5ilXZ9yzi8Av0ePW7dj-67" value="FuenteNecesidad" style="text;strokeColor=none;fillColor=none;align=left;verticalAlign=middle;spacingLeft=4;spacingRight=4;overflow=hidden;points=[[0,0.5],[1,0.5]];portConstraint=eastwest;rotatable=0;whiteSpace=wrap;html=1;" parent="H5ilXZ9yzi8Av0ePW7dj-9" vertex="1">
          <mxGeometry y="150" width="140" height="30" as="geometry" />
        </mxCell>
        <mxCell id="H5ilXZ9yzi8Av0ePW7dj-17" value="Usuario" style="rounded=0;whiteSpace=wrap;html=1;" parent="1" vertex="1">
          <mxGeometry x="474.5" y="682" width="120" height="60" as="geometry" />
        </mxCell>
        <mxCell id="H5ilXZ9yzi8Av0ePW7dj-19" value="NecesidadMonetaria&lt;div&gt;Aggregate Root&lt;/div&gt;" style="rounded=0;whiteSpace=wrap;html=1;strokeWidth=3;" parent="1" vertex="1">
          <mxGeometry x="334.5" y="607" width="120" height="60" as="geometry" />
        </mxCell>
        <mxCell id="H5ilXZ9yzi8Av0ePW7dj-20" value="DonacionMaterial&lt;div&gt;Aggregate Root&lt;/div&gt;" style="rounded=0;whiteSpace=wrap;html=1;strokeWidth=3;" parent="1" vertex="1">
          <mxGeometry x="474.5" y="607" width="120" height="60" as="geometry" />
        </mxCell>
        <mxCell id="H5ilXZ9yzi8Av0ePW7dj-31" style="edgeStyle=orthogonalEdgeStyle;rounded=0;orthogonalLoop=1;jettySize=auto;html=1;exitX=1;exitY=0.5;exitDx=0;exitDy=0;entryX=0;entryY=0.5;entryDx=0;entryDy=0;" parent="1" source="H5ilXZ9yzi8Av0ePW7dj-23" target="bbmx29JU76m_AN02uEQV-23" edge="1">
          <mxGeometry relative="1" as="geometry">
            <Array as="points">
              <mxPoint x="565" y="770" />
              <mxPoint x="637" y="770" />
              <mxPoint x="637" y="735" />
            </Array>
          </mxGeometry>
        </mxCell>
        <mxCell id="H5ilXZ9yzi8Av0ePW7dj-55" style="edgeStyle=orthogonalEdgeStyle;rounded=0;orthogonalLoop=1;jettySize=auto;html=1;entryX=0;entryY=0.75;entryDx=0;entryDy=0;" parent="1" source="H5ilXZ9yzi8Av0ePW7dj-23" target="H5ilXZ9yzi8Av0ePW7dj-28" edge="1">
          <mxGeometry relative="1" as="geometry">
            <Array as="points">
              <mxPoint x="617" y="782" />
              <mxPoint x="617" y="811" />
            </Array>
          </mxGeometry>
        </mxCell>
        <mxCell id="H5ilXZ9yzi8Av0ePW7dj-56" style="edgeStyle=orthogonalEdgeStyle;rounded=0;orthogonalLoop=1;jettySize=auto;html=1;entryX=0;entryY=0.5;entryDx=0;entryDy=0;" parent="1" source="H5ilXZ9yzi8Av0ePW7dj-23" target="H5ilXZ9yzi8Av0ePW7dj-29" edge="1">
          <mxGeometry relative="1" as="geometry" />
        </mxCell>
        <mxCell id="H5ilXZ9yzi8Av0ePW7dj-57" style="edgeStyle=orthogonalEdgeStyle;rounded=0;orthogonalLoop=1;jettySize=auto;html=1;exitX=1;exitY=0.5;exitDx=0;exitDy=0;entryX=0;entryY=0.5;entryDx=0;entryDy=0;" parent="1" source="H5ilXZ9yzi8Av0ePW7dj-23" target="H5ilXZ9yzi8Av0ePW7dj-53" edge="1">
          <mxGeometry relative="1" as="geometry" />
        </mxCell>
        <mxCell id="H5ilXZ9yzi8Av0ePW7dj-23" value="DonarDinero" style="rounded=0;whiteSpace=wrap;html=1;" parent="1" vertex="1">
          <mxGeometry x="403.5" y="767" width="161" height="30" as="geometry" />
        </mxCell>
        <mxCell id="H5ilXZ9yzi8Av0ePW7dj-58" style="edgeStyle=orthogonalEdgeStyle;rounded=0;orthogonalLoop=1;jettySize=auto;html=1;entryX=0;entryY=0.75;entryDx=0;entryDy=0;" parent="1" source="H5ilXZ9yzi8Av0ePW7dj-24" target="H5ilXZ9yzi8Av0ePW7dj-28" edge="1">
          <mxGeometry relative="1" as="geometry" />
        </mxCell>
        <mxCell id="H5ilXZ9yzi8Av0ePW7dj-59" style="edgeStyle=orthogonalEdgeStyle;rounded=0;orthogonalLoop=1;jettySize=auto;html=1;entryX=0;entryY=0.5;entryDx=0;entryDy=0;" parent="1" source="H5ilXZ9yzi8Av0ePW7dj-24" target="H5ilXZ9yzi8Av0ePW7dj-29" edge="1">
          <mxGeometry relative="1" as="geometry" />
        </mxCell>
        <mxCell id="H5ilXZ9yzi8Av0ePW7dj-60" style="edgeStyle=orthogonalEdgeStyle;rounded=0;orthogonalLoop=1;jettySize=auto;html=1;entryX=0;entryY=0.5;entryDx=0;entryDy=0;" parent="1" source="H5ilXZ9yzi8Av0ePW7dj-24" target="H5ilXZ9yzi8Av0ePW7dj-54" edge="1">
          <mxGeometry relative="1" as="geometry" />
        </mxCell>
        <mxCell id="H5ilXZ9yzi8Av0ePW7dj-24" value="DonarRecurso" style="rounded=0;whiteSpace=wrap;html=1;" parent="1" vertex="1">
          <mxGeometry x="403.5" y="807" width="161" height="30" as="geometry" />
        </mxCell>
        <mxCell id="H5ilXZ9yzi8Av0ePW7dj-25" value="PedirDinero" style="rounded=0;whiteSpace=wrap;html=1;" parent="1" vertex="1">
          <mxGeometry x="403.5" y="847" width="161" height="30" as="geometry" />
        </mxCell>
        <mxCell id="H5ilXZ9yzi8Av0ePW7dj-26" value="VerDonacionesPendientes" style="rounded=0;whiteSpace=wrap;html=1;" parent="1" vertex="1">
          <mxGeometry x="403.5" y="920" width="161" height="30" as="geometry" />
        </mxCell>
        <mxCell id="H5ilXZ9yzi8Av0ePW7dj-28" value="DonacionRepository" style="rounded=0;whiteSpace=wrap;html=1;" parent="1" vertex="1">
          <mxGeometry x="670" y="786.5" width="170" height="33" as="geometry" />
        </mxCell>
        <mxCell id="H5ilXZ9yzi8Av0ePW7dj-29" value="DonadorRepository" style="rounded=0;whiteSpace=wrap;html=1;" parent="1" vertex="1">
          <mxGeometry x="670" y="830" width="170" height="33" as="geometry" />
        </mxCell>
        <mxCell id="H5ilXZ9yzi8Av0ePW7dj-33" style="edgeStyle=orthogonalEdgeStyle;rounded=0;orthogonalLoop=1;jettySize=auto;html=1;entryX=0;entryY=0.5;entryDx=0;entryDy=0;" parent="1" source="H5ilXZ9yzi8Av0ePW7dj-32" target="H5ilXZ9yzi8Av0ePW7dj-23" edge="1">
          <mxGeometry relative="1" as="geometry" />
        </mxCell>
        <mxCell id="H5ilXZ9yzi8Av0ePW7dj-34" style="edgeStyle=orthogonalEdgeStyle;rounded=0;orthogonalLoop=1;jettySize=auto;html=1;entryX=0;entryY=0.5;entryDx=0;entryDy=0;" parent="1" source="H5ilXZ9yzi8Av0ePW7dj-32" target="H5ilXZ9yzi8Av0ePW7dj-24" edge="1">
          <mxGeometry relative="1" as="geometry" />
        </mxCell>
        <mxCell id="H5ilXZ9yzi8Av0ePW7dj-35" style="edgeStyle=orthogonalEdgeStyle;rounded=0;orthogonalLoop=1;jettySize=auto;html=1;entryX=0;entryY=0.5;entryDx=0;entryDy=0;" parent="1" source="H5ilXZ9yzi8Av0ePW7dj-32" target="H5ilXZ9yzi8Av0ePW7dj-25" edge="1">
          <mxGeometry relative="1" as="geometry" />
        </mxCell>
        <mxCell id="H5ilXZ9yzi8Av0ePW7dj-36" style="edgeStyle=orthogonalEdgeStyle;rounded=0;orthogonalLoop=1;jettySize=auto;html=1;entryX=0;entryY=0.5;entryDx=0;entryDy=0;" parent="1" source="H5ilXZ9yzi8Av0ePW7dj-32" target="H5ilXZ9yzi8Av0ePW7dj-26" edge="1">
          <mxGeometry relative="1" as="geometry" />
        </mxCell>
        <mxCell id="H5ilXZ9yzi8Av0ePW7dj-69" style="edgeStyle=orthogonalEdgeStyle;rounded=0;orthogonalLoop=1;jettySize=auto;html=1;entryX=0;entryY=0.5;entryDx=0;entryDy=0;" parent="1" source="H5ilXZ9yzi8Av0ePW7dj-32" target="H5ilXZ9yzi8Av0ePW7dj-68" edge="1">
          <mxGeometry relative="1" as="geometry" />
        </mxCell>
        <mxCell id="H5ilXZ9yzi8Av0ePW7dj-32" value="DonacionController" style="rounded=0;whiteSpace=wrap;html=1;" parent="1" vertex="1">
          <mxGeometry x="120" y="819.5" width="120" height="33" as="geometry" />
        </mxCell>
        <mxCell id="H5ilXZ9yzi8Av0ePW7dj-42" value="Interested" style="swimlane;fontStyle=0;childLayout=stackLayout;horizontal=1;startSize=30;horizontalStack=0;resizeParent=1;resizeParentMax=0;resizeLast=0;collapsible=1;marginBottom=0;whiteSpace=wrap;html=1;" parent="1" vertex="1">
          <mxGeometry x="510" y="1310" width="140" height="270" as="geometry" />
        </mxCell>
        <mxCell id="H5ilXZ9yzi8Av0ePW7dj-43" value="key" style="text;strokeColor=none;fillColor=none;align=left;verticalAlign=middle;spacingLeft=4;spacingRight=4;overflow=hidden;points=[[0,0.5],[1,0.5]];portConstraint=eastwest;rotatable=0;whiteSpace=wrap;html=1;" parent="H5ilXZ9yzi8Av0ePW7dj-42" vertex="1">
          <mxGeometry y="30" width="140" height="30" as="geometry" />
        </mxCell>
        <mxCell id="H5ilXZ9yzi8Av0ePW7dj-44" value="Name" style="text;strokeColor=none;fillColor=none;align=left;verticalAlign=middle;spacingLeft=4;spacingRight=4;overflow=hidden;points=[[0,0.5],[1,0.5]];portConstraint=eastwest;rotatable=0;whiteSpace=wrap;html=1;" parent="H5ilXZ9yzi8Av0ePW7dj-42" vertex="1">
          <mxGeometry y="60" width="140" height="30" as="geometry" />
        </mxCell>
        <mxCell id="u_nzLg2xMS277ldFhyFY-14" value="LastName" style="text;strokeColor=none;fillColor=none;align=left;verticalAlign=middle;spacingLeft=4;spacingRight=4;overflow=hidden;points=[[0,0.5],[1,0.5]];portConstraint=eastwest;rotatable=0;whiteSpace=wrap;html=1;" parent="H5ilXZ9yzi8Av0ePW7dj-42" vertex="1">
          <mxGeometry y="90" width="140" height="30" as="geometry" />
        </mxCell>
        <mxCell id="u_nzLg2xMS277ldFhyFY-15" value="IdentificationNumber" style="text;strokeColor=none;fillColor=none;align=left;verticalAlign=middle;spacingLeft=4;spacingRight=4;overflow=hidden;points=[[0,0.5],[1,0.5]];portConstraint=eastwest;rotatable=0;whiteSpace=wrap;html=1;" parent="H5ilXZ9yzi8Av0ePW7dj-42" vertex="1">
          <mxGeometry y="120" width="140" height="30" as="geometry" />
        </mxCell>
        <mxCell id="u_nzLg2xMS277ldFhyFY-16" value="IdentificationType" style="text;strokeColor=none;fillColor=none;align=left;verticalAlign=middle;spacingLeft=4;spacingRight=4;overflow=hidden;points=[[0,0.5],[1,0.5]];portConstraint=eastwest;rotatable=0;whiteSpace=wrap;html=1;" parent="H5ilXZ9yzi8Av0ePW7dj-42" vertex="1">
          <mxGeometry y="150" width="140" height="30" as="geometry" />
        </mxCell>
        <mxCell id="u_nzLg2xMS277ldFhyFY-17" value="Phone" style="text;strokeColor=none;fillColor=none;align=left;verticalAlign=middle;spacingLeft=4;spacingRight=4;overflow=hidden;points=[[0,0.5],[1,0.5]];portConstraint=eastwest;rotatable=0;whiteSpace=wrap;html=1;" parent="H5ilXZ9yzi8Av0ePW7dj-42" vertex="1">
          <mxGeometry y="180" width="140" height="30" as="geometry" />
        </mxCell>
        <mxCell id="u_nzLg2xMS277ldFhyFY-18" value="Email" style="text;strokeColor=none;fillColor=none;align=left;verticalAlign=middle;spacingLeft=4;spacingRight=4;overflow=hidden;points=[[0,0.5],[1,0.5]];portConstraint=eastwest;rotatable=0;whiteSpace=wrap;html=1;" parent="H5ilXZ9yzi8Av0ePW7dj-42" vertex="1">
          <mxGeometry y="210" width="140" height="30" as="geometry" />
        </mxCell>
        <mxCell id="u_nzLg2xMS277ldFhyFY-19" value="StartDate" style="text;strokeColor=#d79b00;fillColor=#ffe6cc;align=left;verticalAlign=middle;spacingLeft=4;spacingRight=4;overflow=hidden;points=[[0,0.5],[1,0.5]];portConstraint=eastwest;rotatable=0;whiteSpace=wrap;html=1;" parent="H5ilXZ9yzi8Av0ePW7dj-42" vertex="1">
          <mxGeometry y="240" width="140" height="30" as="geometry" />
        </mxCell>
        <mxCell id="H5ilXZ9yzi8Av0ePW7dj-53" value="NecesidadMonetariaRepository" style="rounded=0;whiteSpace=wrap;html=1;" parent="1" vertex="1">
          <mxGeometry x="670" y="870" width="170" height="33" as="geometry" />
        </mxCell>
        <mxCell id="H5ilXZ9yzi8Av0ePW7dj-54" value="NecesidadMateriallRepository" style="rounded=0;whiteSpace=wrap;html=1;" parent="1" vertex="1">
          <mxGeometry x="670" y="910" width="170" height="33" as="geometry" />
        </mxCell>
        <mxCell id="H5ilXZ9yzi8Av0ePW7dj-63" style="edgeStyle=orthogonalEdgeStyle;rounded=0;orthogonalLoop=1;jettySize=auto;html=1;entryX=-0.024;entryY=0.178;entryDx=0;entryDy=0;entryPerimeter=0;" parent="1" source="H5ilXZ9yzi8Av0ePW7dj-3" target="H5ilXZ9yzi8Av0ePW7dj-44" edge="1">
          <mxGeometry relative="1" as="geometry" />
        </mxCell>
        <mxCell id="H5ilXZ9yzi8Av0ePW7dj-65" value="&lt;h1 style=&quot;margin-top: 0px;&quot;&gt;dos botones: plata vs material&lt;/h1&gt;&lt;div&gt;admin digita info y cuando se da guardar el sistema crea la donacion sin donador y en estado en espera de ser atendida la peticion&lt;/div&gt;&lt;div&gt;&lt;br&gt;&lt;/div&gt;&lt;div&gt;Si es usuario: ver listado. se le puede dar a alguno en yo quiero donar esto y estado cambia a atendido espera de envio o en envio y cuando llega a la fundacion va a quedar en completado. Pero si no quiere donar nada de la lista habra otro boton que diga donar algo diferente o otro, cuando le de click abrira la misma pagina del admin con los dos botones de dinero o material y etc pero nacera con el donador y el estado en envio o completado segun sea el caso.&lt;/div&gt;" style="text;html=1;whiteSpace=wrap;overflow=hidden;rounded=0;" parent="1" vertex="1">
          <mxGeometry x="40" y="1270" width="180" height="540" as="geometry" />
        </mxCell>
        <mxCell id="H5ilXZ9yzi8Av0ePW7dj-68" value="PedirRecurso" style="rounded=0;whiteSpace=wrap;html=1;" parent="1" vertex="1">
          <mxGeometry x="403.5" y="883" width="161" height="30" as="geometry" />
        </mxCell>
        <mxCell id="9qY55Sf-uL2qbFaN9W2N-2" value="Donacion" style="rounded=0;whiteSpace=wrap;html=1;" parent="1" vertex="1">
          <mxGeometry x="440" y="200" width="60" height="30" as="geometry" />
        </mxCell>
        <mxCell id="9qY55Sf-uL2qbFaN9W2N-3" value="Usuario" style="rounded=0;whiteSpace=wrap;html=1;" parent="1" vertex="1">
          <mxGeometry x="440" y="160" width="104" height="30" as="geometry" />
        </mxCell>
        <mxCell id="9qY55Sf-uL2qbFaN9W2N-4" value="AdoptionApplication" style="rounded=0;whiteSpace=wrap;html=1;" parent="1" vertex="1">
          <mxGeometry x="506" y="200" width="110" height="30" as="geometry" />
        </mxCell>
        <mxCell id="u_nzLg2xMS277ldFhyFY-1" value="Pet" style="swimlane;fontStyle=0;childLayout=stackLayout;horizontal=1;startSize=30;horizontalStack=0;resizeParent=1;resizeParentMax=0;resizeLast=0;collapsible=1;marginBottom=0;whiteSpace=wrap;html=1;" parent="1" vertex="1">
          <mxGeometry x="610" y="1020" width="140" height="270" as="geometry" />
        </mxCell>
        <mxCell id="u_nzLg2xMS277ldFhyFY-2" value="kPet" style="text;strokeColor=none;fillColor=none;align=left;verticalAlign=middle;spacingLeft=4;spacingRight=4;overflow=hidden;points=[[0,0.5],[1,0.5]];portConstraint=eastwest;rotatable=0;whiteSpace=wrap;html=1;" parent="u_nzLg2xMS277ldFhyFY-1" vertex="1">
          <mxGeometry y="30" width="140" height="30" as="geometry" />
        </mxCell>
        <mxCell id="u_nzLg2xMS277ldFhyFY-3" value="Name" style="text;strokeColor=none;fillColor=none;align=left;verticalAlign=middle;spacingLeft=4;spacingRight=4;overflow=hidden;points=[[0,0.5],[1,0.5]];portConstraint=eastwest;rotatable=0;whiteSpace=wrap;html=1;" parent="u_nzLg2xMS277ldFhyFY-1" vertex="1">
          <mxGeometry y="60" width="140" height="30" as="geometry" />
        </mxCell>
        <mxCell id="u_nzLg2xMS277ldFhyFY-4" value="Type" style="text;strokeColor=none;fillColor=none;align=left;verticalAlign=middle;spacingLeft=4;spacingRight=4;overflow=hidden;points=[[0,0.5],[1,0.5]];portConstraint=eastwest;rotatable=0;whiteSpace=wrap;html=1;" parent="u_nzLg2xMS277ldFhyFY-1" vertex="1">
          <mxGeometry y="90" width="140" height="30" as="geometry" />
        </mxCell>
        <mxCell id="u_nzLg2xMS277ldFhyFY-10" value="Race" style="text;strokeColor=none;fillColor=none;align=left;verticalAlign=middle;spacingLeft=4;spacingRight=4;overflow=hidden;points=[[0,0.5],[1,0.5]];portConstraint=eastwest;rotatable=0;whiteSpace=wrap;html=1;" parent="u_nzLg2xMS277ldFhyFY-1" vertex="1">
          <mxGeometry y="120" width="140" height="30" as="geometry" />
        </mxCell>
        <mxCell id="u_nzLg2xMS277ldFhyFY-11" value="Age" style="text;strokeColor=none;fillColor=none;align=left;verticalAlign=middle;spacingLeft=4;spacingRight=4;overflow=hidden;points=[[0,0.5],[1,0.5]];portConstraint=eastwest;rotatable=0;whiteSpace=wrap;html=1;" parent="u_nzLg2xMS277ldFhyFY-1" vertex="1">
          <mxGeometry y="150" width="140" height="30" as="geometry" />
        </mxCell>
        <mxCell id="u_nzLg2xMS277ldFhyFY-12" value="kGodFather" style="text;strokeColor=none;fillColor=none;align=left;verticalAlign=middle;spacingLeft=4;spacingRight=4;overflow=hidden;points=[[0,0.5],[1,0.5]];portConstraint=eastwest;rotatable=0;whiteSpace=wrap;html=1;" parent="u_nzLg2xMS277ldFhyFY-1" vertex="1">
          <mxGeometry y="180" width="140" height="30" as="geometry" />
        </mxCell>
        <mxCell id="u_nzLg2xMS277ldFhyFY-13" value="kOwner" style="text;strokeColor=none;fillColor=none;align=left;verticalAlign=middle;spacingLeft=4;spacingRight=4;overflow=hidden;points=[[0,0.5],[1,0.5]];portConstraint=eastwest;rotatable=0;whiteSpace=wrap;html=1;" parent="u_nzLg2xMS277ldFhyFY-1" vertex="1">
          <mxGeometry y="210" width="140" height="30" as="geometry" />
        </mxCell>
        <mxCell id="pVFc_hr9VqEu7FEzNHK0-1" value="EntryDate" style="text;strokeColor=none;fillColor=none;align=left;verticalAlign=middle;spacingLeft=4;spacingRight=4;overflow=hidden;points=[[0,0.5],[1,0.5]];portConstraint=eastwest;rotatable=0;whiteSpace=wrap;html=1;" parent="u_nzLg2xMS277ldFhyFY-1" vertex="1">
          <mxGeometry y="240" width="140" height="30" as="geometry" />
        </mxCell>
        <mxCell id="u_nzLg2xMS277ldFhyFY-5" value="AdoptionRequest" style="swimlane;fontStyle=0;childLayout=stackLayout;horizontal=1;startSize=30;horizontalStack=0;resizeParent=1;resizeParentMax=0;resizeLast=0;collapsible=1;marginBottom=0;whiteSpace=wrap;html=1;" parent="1" vertex="1">
          <mxGeometry x="800" y="1020" width="140" height="150" as="geometry" />
        </mxCell>
        <mxCell id="u_nzLg2xMS277ldFhyFY-6" value="key" style="text;strokeColor=none;fillColor=none;align=left;verticalAlign=middle;spacingLeft=4;spacingRight=4;overflow=hidden;points=[[0,0.5],[1,0.5]];portConstraint=eastwest;rotatable=0;whiteSpace=wrap;html=1;" parent="u_nzLg2xMS277ldFhyFY-5" vertex="1">
          <mxGeometry y="30" width="140" height="30" as="geometry" />
        </mxCell>
        <mxCell id="u_nzLg2xMS277ldFhyFY-7" value="kPet" style="text;strokeColor=none;fillColor=none;align=left;verticalAlign=middle;spacingLeft=4;spacingRight=4;overflow=hidden;points=[[0,0.5],[1,0.5]];portConstraint=eastwest;rotatable=0;whiteSpace=wrap;html=1;" parent="u_nzLg2xMS277ldFhyFY-5" vertex="1">
          <mxGeometry y="60" width="140" height="30" as="geometry" />
        </mxCell>
        <mxCell id="u_nzLg2xMS277ldFhyFY-8" value="kUser" style="text;strokeColor=none;fillColor=none;align=left;verticalAlign=middle;spacingLeft=4;spacingRight=4;overflow=hidden;points=[[0,0.5],[1,0.5]];portConstraint=eastwest;rotatable=0;whiteSpace=wrap;html=1;" parent="u_nzLg2xMS277ldFhyFY-5" vertex="1">
          <mxGeometry y="90" width="140" height="30" as="geometry" />
        </mxCell>
        <mxCell id="u_nzLg2xMS277ldFhyFY-29" value="Approved" style="text;strokeColor=none;fillColor=none;align=left;verticalAlign=middle;spacingLeft=4;spacingRight=4;overflow=hidden;points=[[0,0.5],[1,0.5]];portConstraint=eastwest;rotatable=0;whiteSpace=wrap;html=1;" parent="u_nzLg2xMS277ldFhyFY-5" vertex="1">
          <mxGeometry y="120" width="140" height="30" as="geometry" />
        </mxCell>
        <mxCell id="u_nzLg2xMS277ldFhyFY-24" style="edgeStyle=orthogonalEdgeStyle;rounded=0;orthogonalLoop=1;jettySize=auto;html=1;entryX=1;entryY=0.5;entryDx=0;entryDy=0;" parent="1" source="u_nzLg2xMS277ldFhyFY-7" target="u_nzLg2xMS277ldFhyFY-3" edge="1">
          <mxGeometry relative="1" as="geometry" />
        </mxCell>
        <mxCell id="u_nzLg2xMS277ldFhyFY-25" style="edgeStyle=orthogonalEdgeStyle;rounded=0;orthogonalLoop=1;jettySize=auto;html=1;" parent="1" source="u_nzLg2xMS277ldFhyFY-13" target="H5ilXZ9yzi8Av0ePW7dj-42" edge="1">
          <mxGeometry relative="1" as="geometry" />
        </mxCell>
        <mxCell id="u_nzLg2xMS277ldFhyFY-27" style="edgeStyle=orthogonalEdgeStyle;rounded=0;orthogonalLoop=1;jettySize=auto;html=1;entryX=0.25;entryY=0;entryDx=0;entryDy=0;" parent="1" source="u_nzLg2xMS277ldFhyFY-12" target="H5ilXZ9yzi8Av0ePW7dj-42" edge="1">
          <mxGeometry relative="1" as="geometry" />
        </mxCell>
        <mxCell id="u_nzLg2xMS277ldFhyFY-28" style="edgeStyle=orthogonalEdgeStyle;rounded=0;orthogonalLoop=1;jettySize=auto;html=1;entryX=1;entryY=0.5;entryDx=0;entryDy=0;" parent="1" source="u_nzLg2xMS277ldFhyFY-8" target="H5ilXZ9yzi8Av0ePW7dj-44" edge="1">
          <mxGeometry relative="1" as="geometry">
            <Array as="points">
              <mxPoint x="770" y="1125" />
              <mxPoint x="770" y="1385" />
            </Array>
          </mxGeometry>
        </mxCell>
        <mxCell id="pVFc_hr9VqEu7FEzNHK0-2" value="&lt;h1 style=&quot;margin-top: 0px;&quot;&gt;Como identificar un animal&lt;/h1&gt;&lt;div&gt;Por la nariz, o una aplicacion gat&amp;nbsp; scan permite comparar foto con la apariencia de un anmal&lt;/div&gt;" style="text;html=1;whiteSpace=wrap;overflow=hidden;rounded=0;" parent="1" vertex="1">
          <mxGeometry x="40" y="1750" width="350" height="120" as="geometry" />
        </mxCell>
      </root>
    </mxGraphModel>
  </diagram>
</mxfile>
